<mxfile host="app.diagrams.net" agent="Mozilla/5.0 (Macintosh; Intel Mac OS X 10_15_7) AppleWebKit/537.36 (KHTML, like Gecko) Chrome/129.0.0.0 Safari/537.36" version="24.7.17">
  <diagram id="C5RBs43oDa-KdzZeNtuy" name="Page-1">
    <mxGraphModel dx="1633" dy="940" grid="1" gridSize="10" guides="1" tooltips="1" connect="1" arrows="1" fold="1" page="1" pageScale="1" pageWidth="827" pageHeight="1169" math="0" shadow="0">
      <root>
        <mxCell id="WIyWlLk6GJQsqaUBKTNV-0" />
        <mxCell id="WIyWlLk6GJQsqaUBKTNV-1" parent="WIyWlLk6GJQsqaUBKTNV-0" />
        <mxCell id="1dSOrY2WGg7x927SlMmq-34" value="" style="rounded=1;whiteSpace=wrap;html=1;fillColor=none;container=0;" parent="WIyWlLk6GJQsqaUBKTNV-1" vertex="1">
          <mxGeometry x="60" y="560" width="200" height="820" as="geometry" />
        </mxCell>
        <mxCell id="WIyWlLk6GJQsqaUBKTNV-2" value="" style="rounded=0;html=1;jettySize=auto;orthogonalLoop=1;fontSize=11;endArrow=block;endFill=0;endSize=8;strokeWidth=1;shadow=0;labelBackgroundColor=none;edgeStyle=orthogonalEdgeStyle;" parent="WIyWlLk6GJQsqaUBKTNV-1" source="WIyWlLk6GJQsqaUBKTNV-3" target="WIyWlLk6GJQsqaUBKTNV-6" edge="1">
          <mxGeometry relative="1" as="geometry" />
        </mxCell>
        <mxCell id="WIyWlLk6GJQsqaUBKTNV-3" value="AEC STUDIO" style="rounded=1;whiteSpace=wrap;html=1;fontSize=12;glass=0;strokeWidth=1;shadow=0;" parent="WIyWlLk6GJQsqaUBKTNV-1" vertex="1">
          <mxGeometry x="300" y="70" width="120" height="40" as="geometry" />
        </mxCell>
        <mxCell id="WIyWlLk6GJQsqaUBKTNV-4" value="Existing Program" style="rounded=0;html=1;jettySize=auto;orthogonalLoop=1;fontSize=11;endArrow=block;endFill=0;endSize=8;strokeWidth=1;shadow=0;labelBackgroundColor=none;edgeStyle=orthogonalEdgeStyle;" parent="WIyWlLk6GJQsqaUBKTNV-1" source="WIyWlLk6GJQsqaUBKTNV-6" target="WIyWlLk6GJQsqaUBKTNV-10" edge="1">
          <mxGeometry x="-0.1884" y="-10" relative="1" as="geometry">
            <mxPoint as="offset" />
          </mxGeometry>
        </mxCell>
        <mxCell id="WIyWlLk6GJQsqaUBKTNV-5" value="New Program" style="edgeStyle=orthogonalEdgeStyle;rounded=0;html=1;jettySize=auto;orthogonalLoop=1;fontSize=11;endArrow=block;endFill=0;endSize=8;strokeWidth=1;shadow=0;labelBackgroundColor=none;" parent="WIyWlLk6GJQsqaUBKTNV-1" source="WIyWlLk6GJQsqaUBKTNV-6" target="WIyWlLk6GJQsqaUBKTNV-7" edge="1">
          <mxGeometry y="10" relative="1" as="geometry">
            <mxPoint as="offset" />
          </mxGeometry>
        </mxCell>
        <mxCell id="WIyWlLk6GJQsqaUBKTNV-6" value="Program Configurations" style="rhombus;whiteSpace=wrap;html=1;shadow=0;fontFamily=Helvetica;fontSize=12;align=center;strokeWidth=1;spacing=6;spacingTop=-4;" parent="WIyWlLk6GJQsqaUBKTNV-1" vertex="1">
          <mxGeometry x="170" y="170" width="100" height="80" as="geometry" />
        </mxCell>
        <mxCell id="1dSOrY2WGg7x927SlMmq-53" style="edgeStyle=orthogonalEdgeStyle;rounded=0;orthogonalLoop=1;jettySize=auto;html=1;entryX=0.5;entryY=0;entryDx=0;entryDy=0;" parent="WIyWlLk6GJQsqaUBKTNV-1" source="WIyWlLk6GJQsqaUBKTNV-7" target="WIyWlLk6GJQsqaUBKTNV-10" edge="1">
          <mxGeometry relative="1" as="geometry">
            <Array as="points">
              <mxPoint x="440" y="280" />
              <mxPoint x="332" y="280" />
            </Array>
          </mxGeometry>
        </mxCell>
        <mxCell id="WIyWlLk6GJQsqaUBKTNV-7" value="Create Program Definition" style="rounded=1;whiteSpace=wrap;html=1;fontSize=12;glass=0;strokeWidth=1;shadow=0;" parent="WIyWlLk6GJQsqaUBKTNV-1" vertex="1">
          <mxGeometry x="380" y="190" width="120" height="40" as="geometry" />
        </mxCell>
        <mxCell id="WIyWlLk6GJQsqaUBKTNV-8" value="" style="rounded=0;html=1;jettySize=auto;orthogonalLoop=1;fontSize=11;endArrow=block;endFill=0;endSize=8;strokeWidth=1;shadow=0;labelBackgroundColor=none;edgeStyle=orthogonalEdgeStyle;exitX=0;exitY=0.5;exitDx=0;exitDy=0;" parent="WIyWlLk6GJQsqaUBKTNV-1" source="WIyWlLk6GJQsqaUBKTNV-10" edge="1">
          <mxGeometry x="0.3333" y="20" relative="1" as="geometry">
            <mxPoint as="offset" />
            <mxPoint x="270" y="490" as="targetPoint" />
            <Array as="points">
              <mxPoint x="190" y="360" />
              <mxPoint x="190" y="490" />
            </Array>
          </mxGeometry>
        </mxCell>
        <mxCell id="1dSOrY2WGg7x927SlMmq-7" value="Active Version" style="edgeLabel;html=1;align=center;verticalAlign=middle;resizable=0;points=[];" parent="WIyWlLk6GJQsqaUBKTNV-8" vertex="1" connectable="0">
          <mxGeometry x="-0.4388" relative="1" as="geometry">
            <mxPoint x="40" y="13" as="offset" />
          </mxGeometry>
        </mxCell>
        <mxCell id="WIyWlLk6GJQsqaUBKTNV-9" value="Previous Versions" style="edgeStyle=orthogonalEdgeStyle;rounded=0;html=1;jettySize=auto;orthogonalLoop=1;fontSize=11;endArrow=block;endFill=0;endSize=8;strokeWidth=1;shadow=0;labelBackgroundColor=none;" parent="WIyWlLk6GJQsqaUBKTNV-1" source="WIyWlLk6GJQsqaUBKTNV-10" edge="1">
          <mxGeometry x="-0.7155" y="-15" relative="1" as="geometry">
            <mxPoint x="1" as="offset" />
            <mxPoint x="400" y="490" as="targetPoint" />
            <Array as="points">
              <mxPoint x="490" y="360" />
              <mxPoint x="490" y="490" />
            </Array>
          </mxGeometry>
        </mxCell>
        <mxCell id="WIyWlLk6GJQsqaUBKTNV-10" value="Select/Create Version" style="rhombus;whiteSpace=wrap;html=1;shadow=0;fontFamily=Helvetica;fontSize=12;align=center;strokeWidth=1;spacing=6;spacingTop=-4;" parent="WIyWlLk6GJQsqaUBKTNV-1" vertex="1">
          <mxGeometry x="270" y="310" width="125" height="100" as="geometry" />
        </mxCell>
        <mxCell id="1dSOrY2WGg7x927SlMmq-13" value="Token/Theming Configuration" style="rounded=1;whiteSpace=wrap;html=1;" parent="WIyWlLk6GJQsqaUBKTNV-1" vertex="1">
          <mxGeometry x="100" y="590" width="120" height="60" as="geometry" />
        </mxCell>
        <mxCell id="1dSOrY2WGg7x927SlMmq-38" style="edgeStyle=orthogonalEdgeStyle;rounded=0;orthogonalLoop=1;jettySize=auto;html=1;entryX=0.5;entryY=0;entryDx=0;entryDy=0;" parent="WIyWlLk6GJQsqaUBKTNV-1" source="1dSOrY2WGg7x927SlMmq-19" target="1dSOrY2WGg7x927SlMmq-36" edge="1">
          <mxGeometry relative="1" as="geometry">
            <Array as="points">
              <mxPoint x="160" y="500" />
            </Array>
          </mxGeometry>
        </mxCell>
        <mxCell id="1dSOrY2WGg7x927SlMmq-39" style="edgeStyle=orthogonalEdgeStyle;rounded=0;orthogonalLoop=1;jettySize=auto;html=1;" parent="WIyWlLk6GJQsqaUBKTNV-1" source="1dSOrY2WGg7x927SlMmq-19" target="1dSOrY2WGg7x927SlMmq-37" edge="1">
          <mxGeometry relative="1" as="geometry">
            <Array as="points">
              <mxPoint x="540" y="500" />
            </Array>
          </mxGeometry>
        </mxCell>
        <mxCell id="1dSOrY2WGg7x927SlMmq-19" value="CX Configuration" style="rounded=1;whiteSpace=wrap;html=1;fontSize=12;glass=0;strokeWidth=1;shadow=0;" parent="WIyWlLk6GJQsqaUBKTNV-1" vertex="1">
          <mxGeometry x="272.5" y="470" width="120" height="40" as="geometry" />
        </mxCell>
        <mxCell id="1dSOrY2WGg7x927SlMmq-20" value="" style="group" parent="WIyWlLk6GJQsqaUBKTNV-1" vertex="1" connectable="0">
          <mxGeometry x="440" y="600" width="200" height="360" as="geometry" />
        </mxCell>
        <mxCell id="1dSOrY2WGg7x927SlMmq-11" value="" style="rounded=1;whiteSpace=wrap;html=1;fillColor=none;container=0;" parent="1dSOrY2WGg7x927SlMmq-20" vertex="1">
          <mxGeometry width="200" height="360" as="geometry" />
        </mxCell>
        <mxCell id="1dSOrY2WGg7x927SlMmq-15" value="Template Customisations" style="rounded=1;whiteSpace=wrap;html=1;container=0;" parent="1dSOrY2WGg7x927SlMmq-20" vertex="1">
          <mxGeometry x="40.65999999999994" y="30" width="120" height="60" as="geometry" />
        </mxCell>
        <mxCell id="1dSOrY2WGg7x927SlMmq-14" value="Layout Customisations" style="rounded=1;whiteSpace=wrap;html=1;container=0;" parent="1dSOrY2WGg7x927SlMmq-20" vertex="1">
          <mxGeometry x="40.43999999999994" y="110" width="120" height="60" as="geometry" />
        </mxCell>
        <mxCell id="1dSOrY2WGg7x927SlMmq-16" value="Component Customisations" style="rounded=1;whiteSpace=wrap;html=1;container=0;" parent="1dSOrY2WGg7x927SlMmq-20" vertex="1">
          <mxGeometry x="39.33999999999995" y="190" width="120" height="60" as="geometry" />
        </mxCell>
        <mxCell id="1dSOrY2WGg7x927SlMmq-17" value="Extensibility Framework" style="rounded=1;whiteSpace=wrap;html=1;container=0;" parent="1dSOrY2WGg7x927SlMmq-20" vertex="1">
          <mxGeometry x="39.33999999999995" y="270" width="120" height="60" as="geometry" />
        </mxCell>
        <mxCell id="1dSOrY2WGg7x927SlMmq-21" value="Assets/Files Configuration" style="rounded=1;whiteSpace=wrap;html=1;" parent="WIyWlLk6GJQsqaUBKTNV-1" vertex="1">
          <mxGeometry x="100" y="690" width="120" height="60" as="geometry" />
        </mxCell>
        <mxCell id="1dSOrY2WGg7x927SlMmq-22" value="URL/Page/Routes&lt;br&gt;Configuration" style="rounded=1;whiteSpace=wrap;html=1;" parent="WIyWlLk6GJQsqaUBKTNV-1" vertex="1">
          <mxGeometry x="100" y="990" width="120" height="60" as="geometry" />
        </mxCell>
        <mxCell id="1dSOrY2WGg7x927SlMmq-23" value="Translations/Locals&lt;br&gt;Configuration" style="rounded=1;whiteSpace=wrap;html=1;" parent="WIyWlLk6GJQsqaUBKTNV-1" vertex="1">
          <mxGeometry x="100" y="790" width="120" height="60" as="geometry" />
        </mxCell>
        <mxCell id="1dSOrY2WGg7x927SlMmq-24" value="Analytics&lt;br&gt;Configuration" style="rounded=1;whiteSpace=wrap;html=1;" parent="WIyWlLk6GJQsqaUBKTNV-1" vertex="1">
          <mxGeometry x="100" y="890" width="120" height="60" as="geometry" />
        </mxCell>
        <mxCell id="1dSOrY2WGg7x927SlMmq-25" value="SEO/Meta Tags&lt;br&gt;Configuration" style="rounded=1;whiteSpace=wrap;html=1;" parent="WIyWlLk6GJQsqaUBKTNV-1" vertex="1">
          <mxGeometry x="100" y="1090" width="120" height="60" as="geometry" />
        </mxCell>
        <mxCell id="1dSOrY2WGg7x927SlMmq-26" value="Services/APIs&lt;br&gt;Configuration" style="rounded=1;whiteSpace=wrap;html=1;" parent="WIyWlLk6GJQsqaUBKTNV-1" vertex="1">
          <mxGeometry x="100" y="1190" width="120" height="60" as="geometry" />
        </mxCell>
        <mxCell id="1dSOrY2WGg7x927SlMmq-27" value="Workflow/Rule Engine&lt;br&gt;Configuration" style="rounded=1;whiteSpace=wrap;html=1;" parent="WIyWlLk6GJQsqaUBKTNV-1" vertex="1">
          <mxGeometry x="100" y="1290" width="120" height="60" as="geometry" />
        </mxCell>
        <mxCell id="1dSOrY2WGg7x927SlMmq-36" value="&lt;span style=&quot;color: rgb(0, 0, 0); font-family: Helvetica; font-size: 12px; font-style: normal; font-variant-ligatures: normal; font-variant-caps: normal; font-weight: 400; letter-spacing: normal; orphans: 2; text-align: center; text-indent: 0px; text-transform: none; widows: 2; word-spacing: 0px; -webkit-text-stroke-width: 0px; white-space: normal; background-color: rgb(251, 251, 251); text-decoration-thickness: initial; text-decoration-style: initial; text-decoration-color: initial; display: inline !important; float: none;&quot;&gt;Global Configuration&lt;/span&gt;" style="text;html=1;align=center;verticalAlign=middle;whiteSpace=wrap;rounded=0;" parent="WIyWlLk6GJQsqaUBKTNV-1" vertex="1">
          <mxGeometry x="60" y="540" width="200" height="20" as="geometry" />
        </mxCell>
        <mxCell id="J8QTiQTAkXjwq2sEed_I-2" style="edgeStyle=orthogonalEdgeStyle;rounded=0;orthogonalLoop=1;jettySize=auto;html=1;entryX=0.5;entryY=0;entryDx=0;entryDy=0;" edge="1" parent="WIyWlLk6GJQsqaUBKTNV-1" source="1dSOrY2WGg7x927SlMmq-37" target="J8QTiQTAkXjwq2sEed_I-1">
          <mxGeometry relative="1" as="geometry" />
        </mxCell>
        <mxCell id="1dSOrY2WGg7x927SlMmq-37" value="&lt;br&gt;&lt;span style=&quot;color: rgb(0, 0, 0); font-family: Helvetica; font-size: 12px; font-style: normal; font-variant-ligatures: normal; font-variant-caps: normal; font-weight: 400; letter-spacing: normal; orphans: 2; text-align: center; text-indent: 0px; text-transform: none; widows: 2; word-spacing: 0px; -webkit-text-stroke-width: 0px; white-space: normal; background-color: rgb(251, 251, 251); text-decoration-thickness: initial; text-decoration-style: initial; text-decoration-color: initial; display: inline !important; float: none;&quot;&gt;Page Configuration&lt;/span&gt;&lt;div&gt;&lt;br/&gt;&lt;/div&gt;" style="text;html=1;align=center;verticalAlign=middle;whiteSpace=wrap;rounded=0;" parent="WIyWlLk6GJQsqaUBKTNV-1" vertex="1">
          <mxGeometry x="440" y="540" width="200" height="20" as="geometry" />
        </mxCell>
        <mxCell id="1dSOrY2WGg7x927SlMmq-40" value="" style="group;fillColor=none;rounded=1;" parent="WIyWlLk6GJQsqaUBKTNV-1" vertex="1" connectable="0">
          <mxGeometry x="670" y="930" width="320" height="470" as="geometry" />
        </mxCell>
        <mxCell id="1dSOrY2WGg7x927SlMmq-41" value="" style="rounded=1;whiteSpace=wrap;html=1;fillColor=none;" parent="1dSOrY2WGg7x927SlMmq-40" vertex="1">
          <mxGeometry y="30" width="320" height="440" as="geometry" />
        </mxCell>
        <mxCell id="1dSOrY2WGg7x927SlMmq-42" value="&lt;font style=&quot;font-size: 14px;&quot;&gt;Extensibility Framework&lt;/font&gt;" style="text;html=1;align=center;verticalAlign=middle;whiteSpace=wrap;rounded=0;" parent="1dSOrY2WGg7x927SlMmq-40" vertex="1">
          <mxGeometry y="-10" width="320" height="40" as="geometry" />
        </mxCell>
        <mxCell id="1dSOrY2WGg7x927SlMmq-43" style="edgeStyle=orthogonalEdgeStyle;rounded=0;orthogonalLoop=1;jettySize=auto;html=1;entryX=0;entryY=0.5;entryDx=0;entryDy=0;" parent="1dSOrY2WGg7x927SlMmq-40" source="1dSOrY2WGg7x927SlMmq-47" target="1dSOrY2WGg7x927SlMmq-48" edge="1">
          <mxGeometry relative="1" as="geometry" />
        </mxCell>
        <mxCell id="1dSOrY2WGg7x927SlMmq-44" style="edgeStyle=orthogonalEdgeStyle;rounded=0;orthogonalLoop=1;jettySize=auto;html=1;entryX=0;entryY=0.5;entryDx=0;entryDy=0;" parent="1dSOrY2WGg7x927SlMmq-40" source="1dSOrY2WGg7x927SlMmq-47" target="1dSOrY2WGg7x927SlMmq-49" edge="1">
          <mxGeometry relative="1" as="geometry" />
        </mxCell>
        <mxCell id="1dSOrY2WGg7x927SlMmq-45" style="edgeStyle=orthogonalEdgeStyle;rounded=0;orthogonalLoop=1;jettySize=auto;html=1;entryX=0;entryY=0.5;entryDx=0;entryDy=0;" parent="1dSOrY2WGg7x927SlMmq-40" source="1dSOrY2WGg7x927SlMmq-47" target="1dSOrY2WGg7x927SlMmq-50" edge="1">
          <mxGeometry relative="1" as="geometry" />
        </mxCell>
        <mxCell id="1dSOrY2WGg7x927SlMmq-46" style="edgeStyle=orthogonalEdgeStyle;rounded=0;orthogonalLoop=1;jettySize=auto;html=1;entryX=0;entryY=0.5;entryDx=0;entryDy=0;" parent="1dSOrY2WGg7x927SlMmq-40" source="1dSOrY2WGg7x927SlMmq-47" target="1dSOrY2WGg7x927SlMmq-51" edge="1">
          <mxGeometry relative="1" as="geometry" />
        </mxCell>
        <mxCell id="1dSOrY2WGg7x927SlMmq-47" value="Configurations" style="rounded=1;whiteSpace=wrap;html=1;" parent="1dSOrY2WGg7x927SlMmq-40" vertex="1">
          <mxGeometry x="20" y="70" width="100" height="380" as="geometry" />
        </mxCell>
        <mxCell id="1dSOrY2WGg7x927SlMmq-48" value="IFRAME Engine" style="rounded=1;whiteSpace=wrap;html=1;" parent="1dSOrY2WGg7x927SlMmq-40" vertex="1">
          <mxGeometry x="180" y="70" width="120" height="60" as="geometry" />
        </mxCell>
        <mxCell id="1dSOrY2WGg7x927SlMmq-49" value="Web Component Engine" style="rounded=1;whiteSpace=wrap;html=1;" parent="1dSOrY2WGg7x927SlMmq-40" vertex="1">
          <mxGeometry x="180" y="150" width="120" height="60" as="geometry" />
        </mxCell>
        <mxCell id="1dSOrY2WGg7x927SlMmq-50" value="Tekion Component&amp;nbsp; Modification Engine" style="rounded=1;whiteSpace=wrap;html=1;" parent="1dSOrY2WGg7x927SlMmq-40" vertex="1">
          <mxGeometry x="180" y="230" width="120" height="60" as="geometry" />
        </mxCell>
        <mxCell id="1dSOrY2WGg7x927SlMmq-51" value="Custom Component Engine" style="rounded=1;whiteSpace=wrap;html=1;" parent="1dSOrY2WGg7x927SlMmq-40" vertex="1">
          <mxGeometry x="180" y="310" width="120" height="60" as="geometry" />
        </mxCell>
        <mxCell id="1dSOrY2WGg7x927SlMmq-52" style="edgeStyle=orthogonalEdgeStyle;rounded=0;orthogonalLoop=1;jettySize=auto;html=1;entryX=0.5;entryY=0;entryDx=0;entryDy=0;" parent="WIyWlLk6GJQsqaUBKTNV-1" source="1dSOrY2WGg7x927SlMmq-17" target="1dSOrY2WGg7x927SlMmq-42" edge="1">
          <mxGeometry relative="1" as="geometry" />
        </mxCell>
        <mxCell id="J8QTiQTAkXjwq2sEed_I-1" value="&lt;div&gt;AEC Builder Framework&lt;/div&gt;" style="text;html=1;align=center;verticalAlign=middle;whiteSpace=wrap;rounded=0;" vertex="1" parent="WIyWlLk6GJQsqaUBKTNV-1">
          <mxGeometry x="440" y="580" width="200" height="20" as="geometry" />
        </mxCell>
        <mxCell id="J8QTiQTAkXjwq2sEed_I-3" value="Discovery" style="rounded=1;whiteSpace=wrap;html=1;fontSize=12;glass=0;strokeWidth=1;shadow=0;" vertex="1" parent="WIyWlLk6GJQsqaUBKTNV-1">
          <mxGeometry x="950" y="380" width="120" height="40" as="geometry" />
        </mxCell>
        <mxCell id="J8QTiQTAkXjwq2sEed_I-4" value="Feed Data" style="rounded=1;whiteSpace=wrap;html=1;fontSize=12;glass=0;strokeWidth=1;shadow=0;" vertex="1" parent="WIyWlLk6GJQsqaUBKTNV-1">
          <mxGeometry x="950" y="70" width="120" height="40" as="geometry" />
        </mxCell>
        <mxCell id="J8QTiQTAkXjwq2sEed_I-5" value="ES" style="rounded=1;whiteSpace=wrap;html=1;fontSize=12;glass=0;strokeWidth=1;shadow=0;" vertex="1" parent="WIyWlLk6GJQsqaUBKTNV-1">
          <mxGeometry x="1160" y="150" width="120" height="40" as="geometry" />
        </mxCell>
        <mxCell id="J8QTiQTAkXjwq2sEed_I-6" value="Integration" style="rounded=1;whiteSpace=wrap;html=1;fontSize=12;glass=0;strokeWidth=1;shadow=0;" vertex="1" parent="WIyWlLk6GJQsqaUBKTNV-1">
          <mxGeometry x="950" y="140" width="120" height="40" as="geometry" />
        </mxCell>
        <mxCell id="J8QTiQTAkXjwq2sEed_I-7" value="Pricing" style="rounded=1;whiteSpace=wrap;html=1;fontSize=12;glass=0;strokeWidth=1;shadow=0;" vertex="1" parent="WIyWlLk6GJQsqaUBKTNV-1">
          <mxGeometry x="1200" y="360" width="120" height="40" as="geometry" />
        </mxCell>
        <mxCell id="J8QTiQTAkXjwq2sEed_I-8" value="OMS" style="rounded=1;whiteSpace=wrap;html=1;fontSize=12;glass=0;strokeWidth=1;shadow=0;" vertex="1" parent="WIyWlLk6GJQsqaUBKTNV-1">
          <mxGeometry x="1200" y="440" width="120" height="40" as="geometry" />
        </mxCell>
        <mxCell id="J8QTiQTAkXjwq2sEed_I-9" value="LMS" style="rounded=1;whiteSpace=wrap;html=1;fontSize=12;glass=0;strokeWidth=1;shadow=0;" vertex="1" parent="WIyWlLk6GJQsqaUBKTNV-1">
          <mxGeometry x="1200" y="520" width="120" height="40" as="geometry" />
        </mxCell>
        <mxCell id="J8QTiQTAkXjwq2sEed_I-10" value="DMS" style="rounded=1;whiteSpace=wrap;html=1;fontSize=12;glass=0;strokeWidth=1;shadow=0;" vertex="1" parent="WIyWlLk6GJQsqaUBKTNV-1">
          <mxGeometry x="1200" y="600" width="120" height="40" as="geometry" />
        </mxCell>
        <mxCell id="J8QTiQTAkXjwq2sEed_I-11" value="DB" style="rounded=1;whiteSpace=wrap;html=1;fontSize=12;glass=0;strokeWidth=1;shadow=0;" vertex="1" parent="WIyWlLk6GJQsqaUBKTNV-1">
          <mxGeometry x="1340" y="150" width="120" height="40" as="geometry" />
        </mxCell>
        <mxCell id="J8QTiQTAkXjwq2sEed_I-12" value="CMS" style="rounded=1;whiteSpace=wrap;html=1;fontSize=12;glass=0;strokeWidth=1;shadow=0;" vertex="1" parent="WIyWlLk6GJQsqaUBKTNV-1">
          <mxGeometry x="1200" y="280" width="120" height="40" as="geometry" />
        </mxCell>
        <mxCell id="J8QTiQTAkXjwq2sEed_I-13" value="Ingestion" style="rounded=1;whiteSpace=wrap;html=1;fontSize=12;glass=0;strokeWidth=1;shadow=0;" vertex="1" parent="WIyWlLk6GJQsqaUBKTNV-1">
          <mxGeometry x="950" y="220" width="120" height="40" as="geometry" />
        </mxCell>
      </root>
    </mxGraphModel>
  </diagram>
</mxfile>
